<svg width="1080" height="1080" viewBox="0 0 1080 1080" fill="none" xmlns="http://www.w3.org/2000/svg">
<g clip-path="url(#clip0_635_12874)">
<path d="M540.617 1079.22C838.639 1079.22 1080.23 837.621 1080.23 539.599C1080.23 241.577 838.639 -0.0178223 540.617 -0.0178223C242.595 -0.0178223 1 241.577 1 539.599C1 837.621 242.595 1079.22 540.617 1079.22Z" fill="url(#paint0_linear_635_12874)"/>
<path opacity="0.321498" d="M541.826 944.1C765.184 944.1 946.252 763.032 946.252 539.674C946.252 316.316 765.184 135.249 541.826 135.249C318.468 135.249 137.4 316.316 137.4 539.674C137.4 763.032 318.468 944.1 541.826 944.1Z" fill="url(#paint1_linear_635_12874)"/>
<path opacity="0.562454" d="M541.75 810.883C690.867 810.883 811.75 690 811.75 540.883C811.75 391.766 690.867 270.883 541.75 270.883C392.633 270.883 271.75 391.766 271.75 540.883C271.75 690 392.633 810.883 541.75 810.883Z" fill="url(#paint2_linear_635_12874)"/>
</g>
<defs>
<linearGradient id="paint0_linear_635_12874" x1="713.536" y1="801.892" x2="1.00026" y2="13.349" gradientUnits="userSpaceOnUse">
<stop offset="0.000983392" stop-color="#642B73"/>
<stop offset="0.476587" stop-color="#642B73"/>
<stop offset="0.99959" stop-color="#C6426E"/>
</linearGradient>
<linearGradient id="paint1_linear_635_12874" x1="541.826" y1="583.644" x2="166.722" y2="198.81" gradientUnits="userSpaceOnUse">
<stop stop-color="#642B73"/>
<stop offset="1" stop-color="#C6426E"/>
</linearGradient>
<linearGradient id="paint2_linear_635_12874" x1="628.271" y1="672.123" x2="138.342" y2="241.015" gradientUnits="userSpaceOnUse">
<stop stop-color="#642B73"/>
<stop offset="1" stop-color="#C6426E"/>
</linearGradient>
<clipPath id="clip0_635_12874">
<rect width="1080" height="1080" fill="white"/>
</clipPath>
</defs>
</svg>
